<?xml version="1.0" encoding="UTF-8"?>
<svg width="90px" height="30px" viewBox="0 0 90 30" version="1.1" xmlns="http://www.w3.org/2000/svg" xmlns:xlink="http://www.w3.org/1999/xlink">
    <!-- Generator: Sketch 52.4 (67378) - http://www.bohemiancoding.com/sketch -->
    <title>upload</title>
    <desc>Created with Sketch.</desc>
    <g id="UI-Library" stroke="none" stroke-width="1" fill="none" fill-rule="evenodd">
        <g id="UI-board" transform="translate(-545.000000, -1436.000000)">
            <g id="Group-3" transform="translate(535.000000, 1395.000000)">
                <g id="Group-2">
                    <g id="Input---w/-label" transform="translate(0.000000, 5.000000)">
                        <g id="Input">
                            <g id="upload" transform="translate(10.000000, 36.000000)">
                                <rect id="Rectangle-5" fill="#273754" fill-rule="nonzero" x="0" y="0" width="90" height="30" rx="3"></rect>
                                <path d="M41.666,15.22 C41.666,15.761336 41.598334,16.2746642 41.463,16.76 C41.327666,17.2453358 41.1130015,17.6723315 40.819,18.041 C40.5249985,18.4096685 40.1400024,18.7036656 39.664,18.923 C39.1879976,19.1423344 38.6093367,19.252 37.928,19.252 C37.2466633,19.252 36.6680024,19.1423344 36.192,18.923 C35.7159976,18.7036656 35.3310015,18.4096685 35.037,18.041 C34.7429985,17.6723315 34.528334,17.2453358 34.393,16.76 C34.257666,16.2746642 34.19,15.761336 34.19,15.22 L34.19,9.088 L35.366,9.088 L35.366,15.052 C35.366,15.4533353 35.4079996,15.8406648 35.492,16.214 C35.5760004,16.5873352 35.715999,16.9186652 35.912,17.208 C36.108001,17.4973348 36.3693317,17.7283325 36.696,17.901 C37.0226683,18.0736675 37.4333309,18.16 37.928,18.16 C38.4226691,18.16 38.8333317,18.0736675 39.16,17.901 C39.4866683,17.7283325 39.747999,17.4973348 39.944,17.208 C40.140001,16.9186652 40.2799996,16.5873352 40.364,16.214 C40.4480004,15.8406648 40.49,15.4533353 40.49,15.052 L40.49,9.088 L41.666,9.088 L41.666,15.22 Z M43.836,12.448 L44.928,12.448 L44.928,13.4 L44.956,13.4 C45.2546682,13.0453316 45.6023314,12.770001 45.999,12.574 C46.3956687,12.377999 46.8319976,12.28 47.308,12.28 C47.8213359,12.28 48.2903312,12.3663325 48.715,12.539 C49.1396688,12.7116675 49.5013318,12.9519985 49.8,13.26 C50.0986682,13.5680015 50.3319992,13.9319979 50.5,14.352 C50.6680008,14.7720021 50.752,15.2293309 50.752,15.724 C50.752,16.2186691 50.6680008,16.6759979 50.5,17.096 C50.3319992,17.5160021 50.1010015,17.8799985 49.807,18.188 C49.5129985,18.4960015 49.1653353,18.7363325 48.764,18.909 C48.3626647,19.0816675 47.9333356,19.168 47.476,19.168 C46.8879971,19.168 46.3723356,19.039668 45.929,18.783 C45.4856645,18.5263321 45.1613344,18.2113352 44.956,17.838 L44.928,17.838 L44.928,22.192 L43.836,22.192 L43.836,12.448 Z M44.928,15.724 C44.928,16.0693351 44.9816661,16.3889985 45.089,16.683 C45.1963339,16.9770015 45.3526656,17.2336656 45.558,17.453 C45.7633344,17.6723344 46.0083319,17.8449994 46.293,17.971 C46.5776681,18.0970006 46.8973316,18.16 47.252,18.16 C47.6066684,18.16 47.9263319,18.0970006 48.211,17.971 C48.4956681,17.8449994 48.7406656,17.6723344 48.946,17.453 C49.1513344,17.2336656 49.3076661,16.9770015 49.415,16.683 C49.5223339,16.3889985 49.576,16.0693351 49.576,15.724 C49.576,15.3786649 49.5223339,15.0590015 49.415,14.765 C49.3076661,14.4709985 49.1513344,14.2143344 48.946,13.995 C48.7406656,13.7756656 48.4956681,13.6030006 48.211,13.477 C47.9263319,13.3509994 47.6066684,13.288 47.252,13.288 C46.8973316,13.288 46.5776681,13.3509994 46.293,13.477 C46.0083319,13.6030006 45.7633344,13.7756656 45.558,13.995 C45.3526656,14.2143344 45.1963339,14.4709985 45.089,14.765 C44.9816661,15.0590015 44.928,15.3786649 44.928,15.724 Z M52.544,8.416 L53.636,8.416 L53.636,19 L52.544,19 L52.544,8.416 Z M55.428,15.724 C55.428,15.2106641 55.5166658,14.7440021 55.694,14.324 C55.8713342,13.9039979 56.1139985,13.5423348 56.422,13.239 C56.7300015,12.9356652 57.0986645,12.7000008 57.528,12.532 C57.9573355,12.3639992 58.4239975,12.28 58.928,12.28 C59.4320025,12.28 59.8986645,12.3639992 60.328,12.532 C60.7573355,12.7000008 61.1259985,12.9356652 61.434,13.239 C61.7420015,13.5423348 61.9846658,13.9039979 62.162,14.324 C62.3393342,14.7440021 62.428,15.2106641 62.428,15.724 C62.428,16.2373359 62.3393342,16.7039979 62.162,17.124 C61.9846658,17.5440021 61.7420015,17.9056652 61.434,18.209 C61.1259985,18.5123348 60.7573355,18.7479992 60.328,18.916 C59.8986645,19.0840008 59.4320025,19.168 58.928,19.168 C58.4239975,19.168 57.9573355,19.0840008 57.528,18.916 C57.0986645,18.7479992 56.7300015,18.5123348 56.422,18.209 C56.1139985,17.9056652 55.8713342,17.5440021 55.694,17.124 C55.5166658,16.7039979 55.428,16.2373359 55.428,15.724 Z M56.604,15.724 C56.604,16.0693351 56.6576661,16.3889985 56.765,16.683 C56.8723339,16.9770015 57.0286656,17.2336656 57.234,17.453 C57.4393344,17.6723344 57.6843319,17.8449994 57.969,17.971 C58.2536681,18.0970006 58.5733316,18.16 58.928,18.16 C59.2826684,18.16 59.6023319,18.0970006 59.887,17.971 C60.1716681,17.8449994 60.4166656,17.6723344 60.622,17.453 C60.8273344,17.2336656 60.9836661,16.9770015 61.091,16.683 C61.1983339,16.3889985 61.252,16.0693351 61.252,15.724 C61.252,15.3786649 61.1983339,15.0590015 61.091,14.765 C60.9836661,14.4709985 60.8273344,14.2143344 60.622,13.995 C60.4166656,13.7756656 60.1716681,13.6030006 59.887,13.477 C59.6023319,13.3509994 59.2826684,13.288 58.928,13.288 C58.5733316,13.288 58.2536681,13.3509994 57.969,13.477 C57.6843319,13.6030006 57.4393344,13.7756656 57.234,13.995 C57.0286656,14.2143344 56.8723339,14.4709985 56.765,14.765 C56.6576661,15.0590015 56.604,15.3786649 56.604,15.724 Z M64.038,13.288 C64.3740017,12.9426649 64.7729977,12.6883341 65.235,12.525 C65.6970023,12.3616659 66.1659976,12.28 66.642,12.28 C67.6126715,12.28 68.3126645,12.5086644 68.742,12.966 C69.1713355,13.4233356 69.386,14.118662 69.386,15.052 L69.386,17.866 C69.386,18.0526676 69.3953332,18.2463323 69.414,18.447 C69.4326668,18.6476677 69.4559999,18.8319992 69.484,19 L68.434,19 C68.3966665,18.8506659 68.3756667,18.6850009 68.371,18.503 C68.3663333,18.3209991 68.364,18.1600007 68.364,18.02 L68.336,18.02 C68.1213323,18.3560017 67.8343351,18.6313323 67.475,18.846 C67.1156649,19.0606677 66.6840025,19.168 66.18,19.168 C65.8439983,19.168 65.5290015,19.1260004 65.235,19.042 C64.9409985,18.9579996 64.6843344,18.8343342 64.465,18.671 C64.2456656,18.5076659 64.0706673,18.3046679 63.94,18.062 C63.8093327,17.8193321 63.744,17.5393349 63.744,17.222 C63.744,16.680664 63.8839986,16.2560015 64.164,15.948 C64.4440014,15.6399985 64.7916646,15.4113341 65.207,15.262 C65.6223354,15.1126659 66.0703309,15.0193335 66.551,14.982 C67.0316691,14.9446665 67.4726647,14.926 67.874,14.926 L68.294,14.926 L68.294,14.73 C68.294,14.2539976 68.1516681,13.8946679 67.867,13.652 C67.5823319,13.4093321 67.1833359,13.288 66.67,13.288 C66.3153316,13.288 65.9676684,13.3463328 65.627,13.463 C65.2863316,13.5796672 64.9853346,13.7593321 64.724,14.002 L64.038,13.288 Z M67.202,15.85 C66.5019965,15.85 65.9466687,15.947999 65.536,16.144 C65.1253313,16.340001 64.92,16.6619978 64.92,17.11 C64.92,17.5206687 65.0576653,17.8123325 65.333,17.985 C65.6083347,18.1576675 65.9513313,18.244 66.362,18.244 C66.6793349,18.244 66.9569988,18.1903339 67.195,18.083 C67.4330012,17.9756661 67.6313325,17.8333342 67.79,17.656 C67.9486675,17.4786658 68.0699996,17.2710012 68.154,17.033 C68.2380004,16.7949988 68.2846666,16.540668 68.294,16.27 L68.294,15.85 L67.202,15.85 Z M76.834,17.838 L76.806,17.838 C76.6006656,18.2113352 76.2763355,18.5263321 75.833,18.783 C75.3896644,19.039668 74.8740029,19.168 74.286,19.168 C73.8286644,19.168 73.3993353,19.0816675 72.998,18.909 C72.5966647,18.7363325 72.2490015,18.4960015 71.955,18.188 C71.6609985,17.8799985 71.4300008,17.5160021 71.262,17.096 C71.0939992,16.6759979 71.01,16.2186691 71.01,15.724 C71.01,15.2293309 71.0939992,14.7720021 71.262,14.352 C71.4300008,13.9319979 71.6633318,13.5680015 71.962,13.26 C72.2606682,12.9519985 72.6223312,12.7116675 73.047,12.539 C73.4716688,12.3663325 73.9406641,12.28 74.454,12.28 C74.9300024,12.28 75.3663313,12.377999 75.763,12.574 C76.1596687,12.770001 76.5073318,13.0453316 76.806,13.4 L76.834,13.4 L76.834,8.416 L77.926,8.416 L77.926,19 L76.834,19 L76.834,17.838 Z M76.834,15.724 C76.834,15.3786649 76.7803339,15.0590015 76.673,14.765 C76.5656661,14.4709985 76.4093344,14.2143344 76.204,13.995 C75.9986656,13.7756656 75.7536681,13.6030006 75.469,13.477 C75.1843319,13.3509994 74.8646684,13.288 74.51,13.288 C74.1553316,13.288 73.8356681,13.3509994 73.551,13.477 C73.2663319,13.6030006 73.0213344,13.7756656 72.816,13.995 C72.6106656,14.2143344 72.4543339,14.4709985 72.347,14.765 C72.2396661,15.0590015 72.186,15.3786649 72.186,15.724 C72.186,16.0693351 72.2396661,16.3889985 72.347,16.683 C72.4543339,16.9770015 72.6106656,17.2336656 72.816,17.453 C73.0213344,17.6723344 73.2663319,17.8449994 73.551,17.971 C73.8356681,18.0970006 74.1553316,18.16 74.51,18.16 C74.8646684,18.16 75.1843319,18.0970006 75.469,17.971 C75.7536681,17.8449994 75.9986656,17.6723344 76.204,17.453 C76.4093344,17.2336656 76.5656661,16.9770015 76.673,16.683 C76.7803339,16.3889985 76.834,16.0693351 76.834,15.724 Z" id="Upload" fill="#FFFFFF"></path>
                                <path d="M25,17 C23.8954305,17 23,16.1045695 23,15 C23,13.8954305 23.8954305,13 25,13 C26.1045695,13 27,13.8954305 27,15 C27,16.1045695 26.1045695,17 25,17 Z M19,17 C17.8954305,17 17,16.1045695 17,15 C17,13.8954305 17.8954305,13 19,13 C20.1045695,13 21,13.8954305 21,15 C21,16.1045695 20.1045695,17 19,17 Z M13,17 C11.8954305,17 11,16.1045695 11,15 C11,13.8954305 11.8954305,13 13,13 C14.1045695,13 15,13.8954305 15,15 C15,16.1045695 14.1045695,17 13,17 Z" id="Combined-Shape" fill="#FFFFFF" opacity="0.699999988"></path>
                            </g>
                        </g>
                    </g>
                </g>
            </g>
        </g>
    </g>
</svg>