<svg width="38px" height="38px" viewBox="0 0 38 38" version="1.1" xmlns="http://www.w3.org/2000/svg" xmlns:xlink="http://www.w3.org/1999/xlink">
    <!-- Generator: Sketch 52.2 (67145) - http://www.bohemiancoding.com/sketch -->
    <title>Combined Shape</title>
    <desc>Created with Sketch.</desc>
    <g id="Mobile" stroke="none" stroke-width="1" fill="none" fill-rule="evenodd">
        <g id="WEB2.4" transform="translate(-327.000000, -94.000000)" fill="#FFFFFF" fill-rule="nonzero">
            <g id="Group" transform="translate(327.000000, 94.000000)">
                <path d="M19,38 C8.50658975,38 0,29.4934102 0,19 C0,8.50658975 8.50658975,0 19,0 C29.4934102,0 38,8.50658975 38,19 C38,29.4934102 29.4934102,38 19,38 Z M19,36 C28.3888407,36 36,28.3888407 36,19 C36,9.61115925 28.3888407,2 19,2 C9.61115925,2 2,9.61115925 2,19 C2,28.3888407 9.61115925,36 19,36 Z M17.6534903,17.8473547 L13.9034903,14.0973547 C13.4892767,13.6831412 13.4892767,13.0115683 13.9034903,12.5973547 C14.3177038,12.1831412 14.9892767,12.1831412 15.4034903,12.5973547 L18.4463835,15.6402479 C18.8369078,16.0307722 19.4700727,16.0307722 19.860597,15.6402479 L22.9034903,12.5973547 C23.3177038,12.1831412 23.9892767,12.1831412 24.4034903,12.5973547 C24.8177038,13.0115683 24.8177038,13.6831412 24.4034903,14.0973547 L20.6534903,17.8473547 C19.8250631,18.6757819 18.4819174,18.6757819 17.6534903,17.8473547 Z M17.6534903,23.4627393 L13.9034903,19.7127393 C13.4892767,19.2985258 13.4892767,18.6269529 13.9034903,18.2127393 C14.3177038,17.7985258 14.9892767,17.7985258 15.4034903,18.2127393 L18.4463835,21.2556326 C18.8369078,21.6461569 19.4700727,21.6461569 19.860597,21.2556326 L22.9034903,18.2127393 C23.3177038,17.7985258 23.9892767,17.7985258 24.4034903,18.2127393 C24.8177038,18.6269529 24.8177038,19.2985258 24.4034903,19.7127393 L20.6534903,23.4627393 C19.8250631,24.2911665 18.4819174,24.2911665 17.6534903,23.4627393 Z" id="Combined-Shape"></path>
            </g>
        </g>
    </g>
</svg>